<svg width="54" height="19" viewBox="0 0 54 19" fill="none" xmlns="http://www.w3.org/2000/svg">
<g clip-path="url(#clip0_72_102)">
<rect width="54" height="19" fill="black"/>
<path d="M21.8807 15V3.36364H24.6932V12.7159H29.5341V15H21.8807ZM30.6701 15V6.27273H33.4485V15H30.6701ZM32.0621 5.25568C31.672 5.25568 31.3367 5.12689 31.0564 4.86932C30.7761 4.60795 30.636 4.29356 30.636 3.92614C30.636 3.5625 30.7761 3.25189 31.0564 2.99432C31.3367 2.73295 31.672 2.60227 32.0621 2.60227C32.456 2.60227 32.7913 2.73295 33.0678 2.99432C33.3481 3.25189 33.4882 3.5625 33.4882 3.92614C33.4882 4.29356 33.3481 4.60795 33.0678 4.86932C32.7913 5.12689 32.456 5.25568 32.0621 5.25568ZM37.6753 10.0227V15H34.8969V6.27273H37.539V7.875H37.6356C37.8287 7.34091 38.1583 6.92235 38.6242 6.61932C39.0901 6.3125 39.645 6.15909 40.289 6.15909C40.9026 6.15909 41.4348 6.29735 41.8856 6.57386C42.3401 6.84659 42.6924 7.22917 42.9424 7.72159C43.1962 8.21023 43.3212 8.7822 43.3174 9.4375V15H40.539V9.98295C40.5428 9.49811 40.4197 9.11932 40.1697 8.84659C39.9234 8.57386 39.5806 8.4375 39.1412 8.4375C38.8496 8.4375 38.592 8.50189 38.3685 8.63068C38.1488 8.75568 37.9784 8.93561 37.8572 9.17045C37.7397 9.4053 37.6791 9.68939 37.6753 10.0227ZM48.7971 15.1648C47.8842 15.1648 47.0963 14.9848 46.4335 14.625C45.7744 14.2614 45.2668 13.7443 44.9107 13.0739C44.5585 12.3996 44.3823 11.5985 44.3823 10.6705C44.3823 9.76894 44.5604 8.98106 44.9164 8.30682C45.2725 7.62879 45.7744 7.10227 46.4221 6.72727C47.0698 6.34848 47.8331 6.15909 48.7119 6.15909C49.3331 6.15909 49.9013 6.25568 50.4164 6.44886C50.9316 6.64205 51.3766 6.92803 51.7516 7.30682C52.1266 7.68561 52.4183 8.15341 52.6266 8.71023C52.835 9.26326 52.9391 9.89773 52.9391 10.6136V11.3068H45.3539V9.69318H50.3539C50.3501 9.39773 50.2801 9.13447 50.1437 8.90341C50.0073 8.67235 49.8198 8.49242 49.5812 8.36364C49.3463 8.23106 49.0755 8.16477 48.7687 8.16477C48.4581 8.16477 48.1797 8.23485 47.9335 8.375C47.6873 8.51136 47.4922 8.69886 47.3482 8.9375C47.2043 9.17235 47.1285 9.43939 47.121 9.73864V11.3807C47.121 11.7367 47.191 12.0492 47.3312 12.3182C47.4713 12.5833 47.6702 12.7898 47.9278 12.9375C48.1854 13.0852 48.4922 13.1591 48.8482 13.1591C49.0945 13.1591 49.3179 13.125 49.5187 13.0568C49.7195 12.9886 49.8918 12.8883 50.0357 12.7557C50.1797 12.6231 50.2876 12.4602 50.3596 12.267L52.9107 12.3409C52.8047 12.9129 52.5717 13.411 52.2119 13.8352C51.8558 14.2557 51.388 14.5833 50.8085 14.8182C50.2289 15.0492 49.5585 15.1648 48.7971 15.1648Z" fill="white"/>
<path d="M10.8575 2.85693L17.9094 15.0712H3.80554L10.8575 2.85693Z" fill="white"/>
<path d="M5.42857 6.92822L10.1299 15.0711H0.727291L5.42857 6.92822Z" fill="white"/>
</g>
<defs>
<clipPath id="clip0_72_102">
<rect width="54" height="19" fill="white"/>
</clipPath>
</defs>
</svg>
