<svg width="96" height="96" viewBox="0 0 96 96" fill="none" xmlns="http://www.w3.org/2000/svg">
<g clip-path="url(#clip0_374_277)">
<path d="M48 75.62C53.4627 75.62 58.8028 74.0001 63.3448 70.9652C67.8869 67.9303 71.4271 63.6166 73.5176 58.5697C75.608 53.5228 76.155 47.9694 75.0893 42.6116C74.0236 37.2539 71.393 32.3324 67.5303 28.4697C63.6676 24.607 58.7461 21.9764 53.3884 20.9107C48.0306 19.845 42.4772 20.392 37.4303 22.4824C32.3834 24.5729 28.0697 28.1131 25.0348 32.6552C21.9999 37.1972 20.38 42.5373 20.38 48C20.3787 51.6275 21.0922 55.2197 22.4798 58.5713C23.8673 61.9229 25.9018 64.9682 28.4668 67.5332C31.0318 70.0982 34.0771 72.1327 37.4287 73.5202C40.7803 74.9078 44.3725 75.6213 48 75.62ZM48 24C52.7468 24 57.3869 25.4076 61.3337 28.0447C65.2805 30.6819 68.3566 34.4302 70.1731 38.8156C71.9896 43.201 72.4649 48.0266 71.5388 52.6822C70.6128 57.3377 68.327 61.6141 64.9706 64.9706C61.6141 68.327 57.3377 70.6128 52.6822 71.5388C48.0266 72.4649 43.201 71.9896 38.8156 70.1731C34.4302 68.3566 30.6819 65.2805 28.0447 61.3337C25.4076 57.3869 24 52.7468 24 48C24 41.6348 26.5286 35.5303 31.0294 31.0294C35.5303 26.5286 41.6348 24 48 24ZM67.62 48.52C67.6213 45.9768 67.1215 43.4582 66.1492 41.1082C65.1768 38.7582 63.751 36.6227 61.9531 34.8239C60.1553 33.0251 58.0206 31.5982 55.6711 30.6246C53.3215 29.6511 50.8032 29.15 48.26 29.15V67.88C53.3946 67.88 58.3189 65.8403 61.9496 62.2096C65.5803 58.5789 67.62 53.6546 67.62 48.52ZM47.74 79.52C47.5023 79.52 47.2669 79.5668 47.0473 79.6578C46.8277 79.7487 46.6282 79.8821 46.4601 80.0501C46.2921 80.2182 46.1587 80.4177 46.0678 80.6373C45.9768 80.8569 45.93 81.0923 45.93 81.33V93.69C45.93 94.17 46.1207 94.6304 46.4601 94.9699C46.7996 95.3093 47.26 95.5 47.74 95.5C48.22 95.5 48.6804 95.3093 49.0199 94.9699C49.3593 94.6304 49.55 94.17 49.55 93.69V81.3C49.55 80.82 49.3593 80.3596 49.0199 80.0201C48.6804 79.6807 48.22 79.49 47.74 79.49V79.52ZM72.64 70.52C72.2949 70.2775 71.876 70.1631 71.4556 70.1966C71.0352 70.23 70.6397 70.4093 70.3373 70.7033C70.035 70.9973 69.8448 71.3877 69.7996 71.8071C69.7545 72.2264 69.8572 72.6483 70.09 73L78.85 81.76C79.1958 82.0649 79.6449 82.2264 80.1057 82.2115C80.5664 82.1966 81.0042 82.0064 81.3295 81.6798C81.6549 81.3532 81.8433 80.9147 81.8564 80.4539C81.8695 79.993 81.7063 79.5446 81.4 79.2L72.64 70.52ZM79.49 48.33C79.49 48.81 79.6807 49.2704 80.0201 49.6099C80.3596 49.9493 80.82 50.14 81.3 50.14H93.69C93.9277 50.14 94.1631 50.0932 94.3827 50.0022C94.6023 49.9113 94.8018 49.7779 94.9699 49.6099C95.1379 49.4418 95.2713 49.2423 95.3622 49.0227C95.4532 48.8031 95.5 48.5677 95.5 48.33C95.5 48.0923 95.4532 47.8569 95.3622 47.6373C95.2713 47.4177 95.1379 47.2182 94.9699 47.0501C94.8018 46.8821 94.6023 46.7487 94.3827 46.6578C94.1631 46.5668 93.9277 46.52 93.69 46.52H81.3C80.8318 46.5197 80.3818 46.7007 80.0443 47.0252C79.7068 47.3496 79.5081 47.7922 79.49 48.26V48.33ZM73 25.91L81.76 17.15C82.0649 16.8042 82.2264 16.3551 82.2115 15.8943C82.1966 15.4336 82.0064 14.9958 81.6798 14.6705C81.3532 14.3451 80.9147 14.1567 80.4539 14.1436C79.993 14.1305 79.5446 14.2937 79.2 14.6L70.44 23.36C70.1351 23.7058 69.9736 24.1549 69.9885 24.6157C70.0034 25.0764 70.1936 25.5142 70.5202 25.8395C70.8468 26.1649 71.2853 26.3533 71.7461 26.3664C72.207 26.3795 72.6554 26.2163 73 25.91ZM48.25 16.51C48.73 16.51 49.1904 16.3193 49.5299 15.9799C49.8693 15.6404 50.06 15.18 50.06 14.7V2.31C50.06 1.82996 49.8693 1.36958 49.5299 1.03014C49.1904 0.690696 48.73 0.5 48.25 0.5C47.77 0.5 47.3096 0.690696 46.9701 1.03014C46.6307 1.36958 46.44 1.82996 46.44 2.31V14.7C46.44 14.9385 46.4871 15.1747 46.5787 15.395C46.6703 15.6152 46.8045 15.8152 46.9737 15.9834C47.1428 16.1516 47.3435 16.2847 47.5643 16.3751C47.785 16.4655 48.0215 16.5113 48.26 16.51H48.25ZM23.35 25.51C23.6959 25.7765 24.1265 25.909 24.5624 25.883C24.9983 25.8571 25.4101 25.6744 25.7219 25.3687C26.0337 25.0629 26.2245 24.6548 26.2591 24.2195C26.2936 23.7842 26.1696 23.3511 25.91 23L17.15 14.24C16.9859 14.0554 16.7859 13.9064 16.562 13.802C16.3382 13.6977 16.0954 13.6402 15.8486 13.6332C15.6017 13.6262 15.3561 13.6697 15.1267 13.7612C14.8973 13.8527 14.6891 13.9901 14.5148 14.1651C14.3405 14.3401 14.2039 14.5488 14.1133 14.7786C14.0227 15.0083 13.9801 15.2541 13.9881 15.501C13.9961 15.7478 14.0545 15.9904 14.1597 16.2138C14.2649 16.4372 14.4148 16.6367 14.6 16.8L23.35 25.51ZM2.35 49.51H14.7C15.18 49.51 15.6404 49.3193 15.9799 48.9799C16.3193 48.6404 16.51 48.18 16.51 47.7C16.51 47.22 16.3193 46.7596 15.9799 46.4201C15.6404 46.0807 15.18 45.89 14.7 45.89H2.31C2.07231 45.89 1.83694 45.9368 1.61734 46.0278C1.39774 46.1187 1.19821 46.2521 1.03014 46.4201C0.862063 46.5882 0.728739 46.7877 0.637778 47.0073C0.546817 47.2269 0.5 47.4623 0.5 47.7C0.5 47.9377 0.546817 48.1731 0.637778 48.3927C0.728739 48.6123 0.862063 48.8118 1.03014 48.9799C1.19821 49.1479 1.39774 49.2813 1.61734 49.3722C1.83694 49.4632 2.07231 49.51 2.31 49.51H2.35ZM24.35 69.51C24.1121 69.5083 23.8762 69.5543 23.6563 69.6454C23.4365 69.7364 23.2371 69.8706 23.07 70.04L14.31 78.8C14.1407 78.9674 14.0063 79.1667 13.9145 79.3865C13.8228 79.6062 13.7755 79.8419 13.7755 80.08C13.7755 80.3181 13.8228 80.5538 13.9145 80.7736C14.0063 80.9933 14.1407 81.1926 14.31 81.36C14.6507 81.6971 15.1107 81.8862 15.59 81.8862C16.0693 81.8862 16.5293 81.6971 16.87 81.36L25.63 72.59C25.8798 72.3364 26.0492 72.0147 26.1171 71.6653C26.185 71.3158 26.1484 70.9541 26.0118 70.6254C25.8752 70.2966 25.6447 70.0155 25.3491 69.8171C25.0535 69.6187 24.706 69.5119 24.35 69.51Z" fill="white"/>
</g>
<defs>
<clipPath id="clip0_374_277">
<rect width="96" height="96" fill="white"/>
</clipPath>
</defs>
</svg>
